<svg xmlns="http://www.w3.org/2000/svg" width="1000.536" height="938.315" viewBox="0 0 1000.536 938.315">
  <defs>
    <style>
      .cls-1 {
        stroke: #000;
        stroke-linecap: round;
        stroke-linejoin: round;
        stroke-width: 1px;
        fill-rule: evenodd;
      }
    </style>
  </defs>
  <path class="cls-1" d="M1050.15,189.848c133.06,116.439,266.02,232.984,400.53,351.835-32.71.786-66.98,0.012-102.66-.65-4.37,16.688-.68,35.963-2.02,54.967V990.5c-0.5,1,1.25,4.25-3,3-195.5,0-391,0-588.725.967C749.53,977.779,753.343,958.5,752,939.5c0-131,0-262,1.5-394.5-3.25-1,.25-4.25-4.5-3H653c-1-.5-4.25,1.25-1.5-2.9C784.093,422.952,916.531,307.124,1050.15,189.848Zm-13.26-69.126c51.68-5.314,61.63,25.431,85.96,41.423,75.86,66.143,151.49,132.519,227.9,199.6,37.96,33.04,75.78,66.219,114.44,100.062,18.8,16.2,37.2,32.805,56.53,49.805,10.05,8.423,19.24,14.6,26.37,30.531,6.4,16.04-1.8,39.135-10.54,44.89C1519.06,613.5,1462,602.742,1424,605c-3.25-1.25.25,2-3,4.5,0,134.5,0,269,.88,405.08-8.64,27.12-17.36,31.87-42.88,43.12-189.5.74-379,.01-571.08,0.27-39.989-1.37-106.467,8.89-122.125-24.37-9.628-12.65-8.807-33.56-8.795-50.6V608c-0.5-1,1.25-4.25-3.855-3.121-38.608-.76-100.629,7.773-114.529-23.349-11.4-9.3-11.551-39.468-1.208-51.122,78.159-69.341,157.356-137.644,236.521-207.479,39.13-34.37,78.4-68.6,118.351-103.649,19.545-16.955,38.725-34.275,58.207-52.27C994.881,151.952,1002.89,130.116,1036.89,120.722Zm3.27,549.265c17.46-3.109,42.3,2.662,50.43,11.752,8.72,8.778,16.25,15.557,21.83,30.642,9.59,32-5.78,61.705-21.82,71.153-7.57,10.227-36.11,17.755-59.56,11.77-24.81-12.873-41.812-23.668-44.833-65.639,7.994-38.615,20.363-47.791,51.263-60.29C1040,669.5,1040,669.5,1040.16,669.987ZM851,569c133.5,0,267,0,402,1.5,0,41.5,0,83-1.5,124.5h-60c-1-.5-4.25,1.25-3-3V638c-0.5-1,1.25-4.25-3-3h-270c-1-1.25-4.25,2-3,4.5,0,17.5,0,35,1.038,55.038-20.359,1.141-42.973.027-65.538,0.462,0-21,0-42-.258-64.66C849.182,610.239,846.118,587.31,851,569Zm0,193.5h61c1.233,19.5.032,39,.5,60-1.25,1,2,4.25,4.5,3,89.5,0,179,0,271,1,1.23-18.267.03-38.968,0.5-59.5-1.25-3.25,2,.25,4.5-3,19.5,0,39,0,60,1.5,0,41.5,0,83-1.5,124.5-133.5,0-267,0-403.038,1.038-1.141-20.359-.027-42.973-0.462-65.538,0-10.5,0-21-.3-33.135C849.619,782.7,845.242,770.369,851,762.5Z" transform="translate(-549.844 -120.125)"/>
</svg>
